Coordinates
version=1
nRows=16
nColumns=40
inDegrees=yes

Units are S.I. units (second, meters, Newtons, ...)
If the header above contains a line with 'inDegrees', this indicates whether rotational values are in degrees (yes) or radians (no).

endheader
time	pelvis_tilt	pelvis_list	pelvis_rotation	pelvis_tx	pelvis_ty	pelvis_tz	hip_flexion_r	hip_adduction_r	hip_rotation_r	knee_angle_r	knee_angle_r_beta	ankle_angle_r	subtalar_angle_r	mtp_angle_r	hip_flexion_l	hip_adduction_l	hip_rotation_l	knee_angle_l	knee_angle_l_beta	ankle_angle_l	subtalar_angle_l	mtp_angle_l	lumbar_extension	lumbar_bending	lumbar_rotation	arm_flex_r	arm_add_r	arm_rot_r	elbow_flex_r	pro_sup_r	wrist_flex_r	wrist_dev_r	arm_flex_l	arm_add_l	arm_rot_l	elbow_flex_l	pro_sup_l	wrist_flex_l	wrist_dev_l
      2.00000000	      7.78131556	      4.10887391	      0.12602186	     -0.32623348	      1.09560198	     -0.76893240	      0.47703108	     -2.06163885	     -9.99449936	     17.05788271	      0.29771622	     -4.91752550	      0.00000000	      0.00000000	     15.24767374	     -2.75606630	     -2.65986678	     20.18227002	      0.35224706	     -4.61774498	      0.00000000	      0.00000000	    -10.38679011	      0.68804724	      2.29631524	     89.83821665	    -14.02715598	     39.87918272	     28.04954691	     84.67948131	      0.00000000	      0.00000000	     89.85659297	    -13.37040203	     39.19779962	     35.07308841	     85.43392078	      0.00000000	      0.00000000
      2.00500000	      7.86237555	      4.10698411	      0.11710233	     -0.32655490	      1.09557585	     -0.76876465	      0.41664154	     -2.04524235	    -10.00051265	     17.06170147	      0.29778287	     -4.91667180	      0.00000000	      0.00000000	     15.54674919	     -2.71599141	     -2.67814976	     20.08316385	      0.35051733	     -4.60113008	      0.00000000	      0.00000000	    -10.49098735	      0.69933366	      2.32274805	     89.83889659	    -14.01459381	     39.86056286	     28.07613405	     84.67715194	      0.00000000	      0.00000000	     89.85760252	    -13.36755908	     39.17360943	     35.09165875	     85.42998276	      0.00000000	      0.00000000
      2.01000000	      7.93167966	      4.10704828	      0.12155046	     -0.32686201	      1.09553173	     -0.76861007	      0.36473946	     -2.02881564	    -10.00577726	     17.06603543	      0.29785851	     -4.91010946	      0.00000000	      0.00000000	     15.85010036	     -2.68128844	     -2.70360744	     19.95203315	      0.34822867	     -4.58763802	      0.00000000	      0.00000000	    -10.58276161	      0.70400442	      2.34093291	     89.83887017	    -14.00398113	     39.84219767	     28.09726099	     84.67460164	      0.00000000	      0.00000000	     89.85823883	    -13.36185611	     39.15191073	     35.10767627	     85.42639215	      0.00000000	      0.00000000
      2.01500000	      7.86981931	      4.15263750	      0.10584120	     -0.32714358	      1.09539896	     -0.76844462	      0.48604290	     -2.06286731	     -9.96920576	     17.14398285	      0.29921895	     -4.93590689	      0.00000000	      0.00000000	     16.08071029	     -2.56717526	     -2.70528346	     19.31207043	      0.33705921	     -4.78143123	      0.00000000	      0.00000000	    -10.51989601	      0.65550502	      2.37204199	     89.83770483	    -14.00519719	     39.90563349	     28.06113657	     84.70768698	      0.00000000	      0.00000000	     89.85659956	    -13.35420968	     39.14437569	     35.08556829	     85.41505713	      0.00000000	      0.00000000
      2.02000000	      7.95418919	      4.15348470	      0.10645005	     -0.32741990	      1.09539491	     -0.76823085	      0.41816340	     -2.04891703	     -9.96952096	     17.15529626	      0.29941640	     -4.93589865	      0.00000000	      0.00000000	     16.37218977	     -2.53355458	     -2.72377532	     19.21078381	      0.33529143	     -4.77549483	      0.00000000	      0.00000000	    -10.62104999	      0.64815926	      2.38585906	     89.83756805	    -14.00411862	     39.88854312	     28.08088712	     84.70609064	      0.00000000	      0.00000000	     89.85806807	    -13.35289269	     39.12213816	     35.10270792	     85.41181558	      0.00000000	      0.00000000
      2.02500000	      8.03061748	      4.15508722	      0.11104068	     -0.32770570	      1.09539111	     -0.76804518	      0.36123787	     -2.03612252	     -9.97202667	     17.16383936	      0.29956551	     -4.92887491	      0.00000000	      0.00000000	     16.67293443	     -2.49712227	     -2.74799779	     19.08763748	      0.33314212	     -4.77281616	      0.00000000	      0.00000000	    -10.71654891	      0.64607169	      2.39960717	     89.83775161	    -14.00436128	     39.87291015	     28.09774466	     84.70478532	      0.00000000	      0.00000000	     89.85924580	    -13.35223402	     39.09969785	     35.11921250	     85.40852083	      0.00000000	      0.00000000
      2.03000000	      8.10198192	      4.15654155	      0.11152743	     -0.32804204	      1.09536908	     -0.76786904	      0.31206626	     -2.02488715	     -9.97915542	     17.16983584	      0.29967017	     -4.91468015	      0.00000000	      0.00000000	     16.97298542	     -2.45734449	     -2.77613942	     18.94659951	      0.33068054	     -4.76394873	      0.00000000	      0.00000000	    -10.80642501	      0.64296093	      2.41567950	     89.83843312	    -14.00126529	     39.85770293	     28.11321776	     84.70340999	      0.00000000	      0.00000000	     89.85972698	    -13.34759794	     39.07634451	     35.13716721	     85.40512984	      0.00000000	      0.00000000
      2.03500000	      8.04714664	      4.17678551	      0.17582696	     -0.32834555	      1.09525245	     -0.76781459	      0.40053900	     -2.03154706	     -9.99838137	     17.21103858	      0.30038929	     -4.80628206	      0.00000000	      0.00000000	     17.24055452	     -2.37607972	     -2.91632938	     18.38846271	      0.32093922	     -4.88050220	      0.00000000	      0.00000000	    -10.75515847	      0.61686189	      2.39053175	     89.83724247	    -14.03070276	     39.88219101	     28.06330492	     84.71638929	      0.00000000	      0.00000000	     89.85806707	    -13.30256600	     39.05705191	     35.14801608	     85.39858330	      0.00000000	      0.00000000
      2.04000000	      8.12537165	      4.18263961	      0.14298917	     -0.32852592	      1.09528834	     -0.76770131	      0.33119805	     -2.03587275	    -10.00144455	     17.22622774	      0.30065439	     -4.80420269	      0.00000000	      0.00000000	     17.52947231	     -2.34384754	     -2.92426293	     18.28276713	      0.31909448	     -4.88139254	      0.00000000	      0.00000000	    -10.84199567	      0.61624369	      2.43311347	     89.83425404	    -14.01499168	     39.87029506	     28.08308761	     84.71544617	      0.00000000	      0.00000000	     89.85877584	    -13.30728915	     39.03477461	     35.15828955	     85.39545135	      0.00000000	      0.00000000
      2.04500000	      8.20659037	      4.18852956	      0.13567700	     -0.32890436	      1.09528583	     -0.76749492	      0.28181003	     -2.02797287	    -10.00199490	     17.24064334	      0.30090599	     -4.80066132	      0.00000000	      0.00000000	     17.82223236	     -2.30025881	     -2.93916577	     18.15435876	      0.31685333	     -4.87828523	      0.00000000	      0.00000000	    -10.94692396	      0.60855063	      2.46091703	     89.83723899	    -14.00786178	     39.85715908	     28.09633391	     84.71410003	      0.00000000	      0.00000000	     89.85959038	    -13.30615125	     39.01123956	     35.17260111	     85.39215424	      0.00000000	      0.00000000
      2.05000000	      8.27184582	      4.19115142	      0.12843453	     -0.32904848	      1.09530775	     -0.76744516	      0.22205763	     -2.02807486	    -10.00278646	     17.25719513	      0.30119487	     -4.79957485	      0.00000000	      0.00000000	     18.11205347	     -2.26618062	     -2.96518441	     18.01936457	      0.31449724	     -4.87653912	      0.00000000	      0.00000000	    -11.02118051	      0.61171580	      2.47981092	     89.83550360	    -14.00609139	     39.84410667	     28.10876926	     84.71257661	      0.00000000	      0.00000000	     89.85945234	    -13.30222995	     38.99095655	     35.18725530	     85.38927148	      0.00000000	      0.00000000
      2.05500000	      8.22909827	      4.27020981	      0.08764581	     -0.32930731	      1.09521713	     -0.76735841	      0.34869893	     -2.12635315	     -9.98055559	     17.37898605	      0.30332053	     -4.66244784	      0.00000000	      0.00000000	     18.29963001	     -2.12678155	     -3.02697956	     17.32676023	      0.30240901	     -5.07445180	      0.00000000	      0.00000000	    -10.97306783	      0.53252455	      2.54906410	     89.83791113	    -14.01604060	     39.91385618	     28.01902656	     84.72616591	      0.00000000	      0.00000000	     89.85710361	    -13.28576010	     39.01263243	     35.16923179	     85.38553309	      0.00000000	      0.00000000
      2.06000000	      8.31414939	      4.28030122	      0.07008985	     -0.32955476	      1.09524807	     -0.76721523	      0.27774400	     -2.12904718	     -9.97958603	     17.39796708	      0.30365181	     -4.66714168	      0.00000000	      0.00000000	     18.58927682	     -2.08834225	     -3.02749851	     17.23913196	      0.30087961	     -5.07478593	      0.00000000	      0.00000000	    -11.07424338	      0.51118603	      2.56888563	     89.83751438	    -13.99827896	     39.89977387	     28.04419347	     84.72410171	      0.00000000	      0.00000000	     89.85805551	    -13.27679311	     38.99704131	     35.18355678	     85.38337848	      0.00000000	      0.00000000
      2.06500000	      8.39862998	      4.29030387	      0.06594228	     -0.32976849	      1.09528334	     -0.76712383	      0.21230860	     -2.13460875	     -9.97650444	     17.41645873	      0.30397455	     -4.67695710	      0.00000000	      0.00000000	     18.88329393	     -2.04816908	     -3.04209612	     17.13360073	      0.29903775	     -5.06474551	      0.00000000	      0.00000000	    -11.16627533	      0.50177450	      2.58430160	     89.83619084	    -13.99181539	     39.88465444	     28.06168279	     84.72194026	      0.00000000	      0.00000000	     89.85889127	    -13.27381896	     38.98087560	     35.19549906	     85.38085343	      0.00000000	      0.00000000
      2.07000000	      8.47243082	      4.29919899	      0.05455251	     -0.33007034	      1.09530708	     -0.76700238	      0.15542347	     -2.13796122	     -9.97731397	     17.43456493	      0.30429056	     -4.69011482	      0.00000000	      0.00000000	     19.18601589	     -2.01545269	     -3.06049786	     17.01340543	      0.29693994	     -5.05438428	      0.00000000	      0.00000000	    -11.26287375	      0.49080143	      2.59647502	     89.83643281	    -13.98607981	     39.86966385	     28.07731608	     84.71986727	      0.00000000	      0.00000000	     89.85955476	    -13.27153507	     38.96621680	     35.20539508	     85.37867172	      0.00000000	      0.00000000
      2.07500000	      8.54077152	      4.30678594	      0.04988957	     -0.33034680	      1.09533949	     -0.76689883	      0.11350253	     -2.14295023	     -9.98024729	     17.45251552	      0.30460386	     -4.69991504	      0.00000000	      0.00000000	     19.48007481	     -1.96905382	     -3.08258226	     16.88117490	      0.29463208	     -5.05019220	      0.00000000	      0.00000000	    -11.34572586	      0.48491898	      2.61487548	     89.83874694	    -13.98152851	     39.85635676	     28.09153027	     84.71827470	      0.00000000	      0.00000000	     89.85943084	    -13.27019199	     38.95249955	     35.21429354	     85.37655203	      0.00000000	      0.00000000
